<svg xmlns="http://www.w3.org/2000/svg" viewBox="0 0 192 192" width="384" height="384" shape-rendering="crispEdges">
  <!-- FRONT VIEW: duck detective facing forward -->

  <!-- Fedora (large, symmetrical) -->
  <rect x="44" y="8"  width="104" height="12" fill="#2e1a10"/>
  <rect x="60" y="0"  width="72"  height="12" fill="#2e1a10"/>
  <rect x="60" y="12" width="72"  height="12" fill="#8b5a3c"/>
  <rect x="60" y="24" width="72"  height="12" fill="#2e1a10"/>

  <!-- Head outline -->
  <rect x="64" y="36" width="64" height="12" fill="#125018"/>
  <rect x="56" y="48" width="80" height="12" fill="#125018"/>
  <rect x="56" y="60" width="80" height="12" fill="#125018"/>

  <!-- Head fill -->
  <rect x="64" y="36" width="64" height="12" fill="#2fb84a"/>
  <rect x="56" y="48" width="80" height="12" fill="#2fb84a"/>
  <rect x="56" y="60" width="80" height="12" fill="#2fb84a"/>

  <!-- Eyes (both) -->
  <rect x="68" y="48" width="12" height="12" fill="#ffffff"/>
  <rect x="72" y="52" width="6"  height="6"  fill="#000000"/>
  <rect x="112" y="48" width="12" height="12" fill="#ffffff"/>
  <rect x="116" y="52" width="6"  height="6"  fill="#000000"/>

  <!-- Beak (centered) -->
  <rect x="76" y="72" width="40" height="12" fill="#ffcc33"/>
  <rect x="84" y="84" width="24" height="12" fill="#ffcc33"/>

  <!-- Body outline -->
  <rect x="48" y="84"  width="96" height="12" fill="#125018"/>
  <rect x="44" y="96"  width="104" height="12" fill="#125018"/>
  <rect x="44" y="108" width="104" height="12" fill="#125018"/>
  <rect x="52" y="120" width="88"  height="12" fill="#125018"/>

  <!-- Body fill -->
  <rect x="48" y="84"  width="96" height="12" fill="#2fb84a"/>
  <rect x="44" y="96"  width="104" height="12" fill="#2fb84a"/>
  <rect x="44" y="108" width="104" height="12" fill="#2fb84a"/>
  <rect x="52" y="120" width="88"  height="12" fill="#2fb84a"/>

  <!-- Gun held across chest -->
  <rect x="80" y="96" width="32" height="12" fill="#9aa0a6"/>
  <rect x="92" y="108" width="12" height="12" fill="#4b5458"/>

  <!-- Feet (forward-facing) -->
  <rect x="72" y="132" width="16" height="12" fill="#ff9933"/>
  <rect x="104" y="132" width="16" height="12" fill="#ff9933"/>

  <!-- Shadow -->
  <rect x="72" y="150" width="56" height="8" fill="#000000" opacity="0.16" rx="2"/>
</svg>