<svg xmlns="http://www.w3.org/2000/svg" viewBox="0 0 192 192" width="384" height="384" shape-rendering="crispEdges">
  <!-- REAR VIEW: back of head, big fedora seen from behind, tail feathers, holstered pistol on belt -->
  <!-- Palette same as front view -->
  <!-- Fedora (back) -->
  <rect x="44" y="8"  width="104" height="12" fill="#2e1a10"/>
  <rect x="72" y="0"  width="48"  height="12" fill="#2e1a10"/>
  <rect x="72" y="12" width="48"  height="12" fill="#8b5a3c"/>
  <rect x="72" y="24" width="48"  height="12" fill="#2e1a10"/>

  <!-- Back of head & neck outline + fill -->
  <rect x="72" y="36" width="48" height="12" fill="#125018"/>
  <rect x="64" y="48" width="64" height="12" fill="#125018"/>
  <rect x="64" y="60" width="64" height="12" fill="#125018"/>
  <rect x="72" y="36" width="48" height="12" fill="#2fb84a"/>
  <rect x="64" y="48" width="64" height="12" fill="#2fb84a"/>
  <rect x="64" y="60" width="64" height="12" fill="#2fb84a"/>

  <!-- Back / shoulders -->
  <rect x="56" y="72"  width="80" height="12" fill="#125018"/>
  <rect x="48" y="84"  width="96" height="12" fill="#125018"/>
  <rect x="48" y="96"  width="96" height="12" fill="#125018"/>
  <rect x="56" y="108" width="80" height="12" fill="#125018"/>
  <rect x="64" y="120" width="64" height="12" fill="#125018"/>

  <rect x="56" y="72"  width="80" height="12" fill="#2fb84a"/>
  <rect x="48" y="84"  width="96" height="12" fill="#2fb84a"/>
  <rect x="48" y="96"  width="96" height="12" fill="#2fb84a"/>
  <rect x="56" y="108" width="80" height="12" fill="#2fb84a"/>
  <rect x="64" y="120" width="64" height="12" fill="#2fb84a"/>

  <!-- Tail feathers (center back, small fan) -->
  <rect x="96" y="120" width="8"  height="12" fill="#125018"/>
  <rect x="88" y="120" width="8"  height="12" fill="#2fb84a"/>
  <rect x="104" y="120" width="8"  height="12" fill="#2fb84a"/>
  <rect x="80" y="126" width="8"  height="8"  fill="#125018"/>
  <rect x="112" y="126" width="8"  height="8"  fill="#125018"/>

  <!-- Belt & holster (holster on left/rear) -->
  <rect x="64" y="108" width="64" height="6" fill="#8b5a3c"/>
  <rect x="56" y="96"  width="12" height="24" fill="#4b5458"/> <!-- holster body -->
  <rect x="56" y="100" width="8"  height="8"  fill="#9aa0a6"/> <!-- metal rivet -->

  <!-- Holstered pistol tip visible -->
  <rect x="48" y="108" width="12" height="6" fill="#9aa0a6"/>
  <rect x="44" y="114" width="6"  height="6" fill="#4b5458"/>

  <!-- Feet (back view) -->
  <rect x="72" y="132" width="16" height="12" fill="#ff9933"/>
  <rect x="104" y="132" width="16" height="12" fill="#ff9933"/>

  <!-- Small shoulder/feather highlights -->
  <rect x="60" y="84" width="8" height="4" fill="#2fb84a" opacity="0.9"/>
  <rect x="120" y="84" width="8" height="4" fill="#2fb84a" opacity="0.9"/>

  <!-- Shadow -->
  <rect x="72" y="150" width="56" height="8" fill="#000000" opacity="0.16" rx="2"/>
</svg>