<svg xmlns="http://www.w3.org/2000/svg" viewBox="0 0 192 192" width="384" height="384" shape-rendering="crispEdges">
  <!-- SIDE VIEW: slimmer duck with big fedora, beak and pistol visible -->
  <!-- Fedora (big) -->
  <rect x="44" y="8"  width="104" height="12" fill="#2e1a10"/>
  <rect x="72" y="0"  width="48"  height="12" fill="#2e1a10"/>
  <rect x="72" y="12" width="48"  height="12" fill="#8b5a3c"/>
  <rect x="72" y="24" width="48"  height="12" fill="#2e1a10"/>

  <!-- Head outline & fill -->
  <rect x="76" y="36" width="40" height="12" fill="#125018"/>
  <rect x="64" y="48" width="64" height="12" fill="#125018"/>
  <rect x="64" y="60" width="64" height="12" fill="#125018"/>
  <rect x="76" y="36" width="40" height="12" fill="#2fb84a"/>
  <rect x="64" y="48" width="64" height="12" fill="#2fb84a"/>
  <rect x="64" y="60" width="64" height="12" fill="#2fb84a"/>

  <!-- Eye -->
  <rect x="96" y="48" width="12" height="12" fill="#ffffff"/>
  <rect x="100" y="52" width="6" height="6" fill="#000000"/>

  <!-- Beak (profile right) -->
  <rect x="136" y="60" width="28" height="12" fill="#ffcc33"/>
  <rect x="136" y="72" width="14" height="12" fill="#ffcc33"/>

  <!-- Slim body outline & fill -->
  <rect x="64" y="72"  width="80" height="12" fill="#125018"/>
  <rect x="56" y="84"  width="96" height="12" fill="#125018"/>
  <rect x="56" y="96"  width="96" height="12" fill="#125018"/>
  <rect x="64" y="108" width="80" height="12" fill="#125018"/>
  <rect x="76" y="120" width="56" height="12" fill="#125018"/>
  <rect x="64" y="72"  width="80" height="12" fill="#2fb84a"/>
  <rect x="56" y="84"  width="96" height="12" fill="#2fb84a"/>
  <rect x="56" y="96"  width="96" height="12" fill="#2fb84a"/>
  <rect x="64" y="108" width="80" height="12" fill="#2fb84a"/>
  <rect x="76" y="120" width="56" height="12" fill="#2fb84a"/>

  <!-- Pistol (held by right wing / visible) -->
  <rect x="148" y="84" width="28" height="12" fill="#9aa0a6"/>
  <rect x="160" y="72" width="12" height="12" fill="#9aa0a6"/>
  <rect x="152" y="96" width="12" height="12" fill="#4b5458"/>
  <rect x="140" y="88" width="12" height="6"  fill="#4b5458"/>

  <!-- Feet (front-facing, slightly angle) -->
  <rect x="80" y="132" width="16" height="12" fill="#ff9933"/>
  <rect x="104" y="132" width="16" height="12" fill="#ff9933"/>

  <!-- Small chest highlight -->
  <rect x="72" y="84" width="8" height="4" fill="#2fb84a" opacity="0.9"/>

  <!-- Shadow -->
  <rect x="76" y="150" width="56" height="8" fill="#000000" opacity="0.16" rx="2"/>
</svg>